<svg width="28" height="28" viewBox="0 0 28 28" fill="none" xmlns="http://www.w3.org/2000/svg">
<path d="M14 2.33331C17.1699 2.33331 17.5654 2.34498 18.809 2.40331C20.0515 2.46165 20.8974 2.65648 21.6417 2.94581C22.4117 3.24215 23.0604 3.64348 23.709 4.29098C24.3023 4.87419 24.7613 5.57967 25.0542 6.35831C25.3424 7.10148 25.5384 7.94848 25.5967 9.19098C25.6515 10.4346 25.6667 10.8301 25.6667 14C25.6667 17.1698 25.655 17.5653 25.5967 18.809C25.5384 20.0515 25.3424 20.8973 25.0542 21.6416C24.7622 22.4207 24.303 23.1264 23.709 23.709C23.1257 24.302 22.4202 24.761 21.6417 25.0541C20.8985 25.3423 20.0515 25.5383 18.809 25.5966C17.5654 25.6515 17.1699 25.6666 14 25.6666C10.8302 25.6666 10.4347 25.655 9.19104 25.5966C7.94854 25.5383 7.10271 25.3423 6.35837 25.0541C5.57942 24.7619 4.87382 24.3027 4.29104 23.709C3.69768 23.1259 3.23863 22.4204 2.94587 21.6416C2.65654 20.8985 2.46171 20.0515 2.40337 18.809C2.34854 17.5653 2.33337 17.1698 2.33337 14C2.33337 10.8301 2.34504 10.4346 2.40337 9.19098C2.46171 7.94731 2.65654 7.10265 2.94587 6.35831C3.23782 5.57919 3.69698 4.87352 4.29104 4.29098C4.87399 3.69742 5.57954 3.23833 6.35837 2.94581C7.10271 2.65648 7.94737 2.46165 9.19104 2.40331C10.4347 2.34848 10.8302 2.33331 14 2.33331ZM14 8.16665C12.4529 8.16665 10.9692 8.78123 9.87525 9.87519C8.78129 10.9692 8.16671 12.4529 8.16671 14C8.16671 15.5471 8.78129 17.0308 9.87525 18.1248C10.9692 19.2187 12.4529 19.8333 14 19.8333C15.5471 19.8333 17.0309 19.2187 18.1248 18.1248C19.2188 17.0308 19.8334 15.5471 19.8334 14C19.8334 12.4529 19.2188 10.9692 18.1248 9.87519C17.0309 8.78123 15.5471 8.16665 14 8.16665ZM21.5834 7.87498C21.5834 7.48821 21.4297 7.11727 21.1562 6.84378C20.8827 6.57029 20.5118 6.41665 20.125 6.41665C19.7383 6.41665 19.3673 6.57029 19.0938 6.84378C18.8204 7.11727 18.6667 7.48821 18.6667 7.87498C18.6667 8.26175 18.8204 8.63269 19.0938 8.90618C19.3673 9.17967 19.7383 9.33331 20.125 9.33331C20.5118 9.33331 20.8827 9.17967 21.1562 8.90618C21.4297 8.63269 21.5834 8.26175 21.5834 7.87498ZM14 10.5C14.9283 10.5 15.8185 10.8687 16.4749 11.5251C17.1313 12.1815 17.5 13.0717 17.5 14C17.5 14.9282 17.1313 15.8185 16.4749 16.4749C15.8185 17.1312 14.9283 17.5 14 17.5C13.0718 17.5 12.1815 17.1312 11.5252 16.4749C10.8688 15.8185 10.5 14.9282 10.5 14C10.5 13.0717 10.8688 12.1815 11.5252 11.5251C12.1815 10.8687 13.0718 10.5 14 10.5Z" fill="#131212"/>
</svg>
