<svg width="177" height="29" viewBox="0 0 177 29" fill="none" xmlns="http://www.w3.org/2000/svg">
<g clip-path="url(#clip0_3_25)">
<path d="M12.648 22.6024C11.1067 22.6024 9.656 22.3758 8.296 21.9224C6.936 21.4464 5.746 20.7438 4.726 19.8144C3.72867 18.8624 2.93533 17.6838 2.346 16.2784C1.77933 14.8504 1.496 13.1958 1.496 11.3144C1.496 9.45578 1.79067 7.81244 2.38 6.38444C2.96933 4.93377 3.76267 3.72111 4.76 2.74644C5.78 1.74911 6.95867 0.989774 8.296 0.468441C9.63333 -0.0528926 11.0387 -0.313559 12.512 -0.313559C14.144 -0.313559 15.5493 -0.0188924 16.728 0.570441C17.9293 1.13711 18.9267 1.81711 19.72 2.61044L16.66 6.35044C16.116 5.87444 15.538 5.48911 14.926 5.19444C14.3367 4.87711 13.6 4.71844 12.716 4.71844C11.968 4.71844 11.2767 4.86578 10.642 5.16044C10.0073 5.45511 9.452 5.87444 8.976 6.41844C8.5 6.96244 8.126 7.63111 7.854 8.42444C7.60467 9.21778 7.48 10.1131 7.48 11.1104C7.48 13.1958 7.94467 14.7938 8.874 15.9044C9.80333 17.0151 11.2653 17.5704 13.26 17.5704C13.5773 17.5704 13.8833 17.5364 14.178 17.4684C14.4953 17.4004 14.756 17.2984 14.96 17.1624V14.1024H11.696V9.34244H20.128V19.8824C19.3347 20.6304 18.2807 21.2764 16.966 21.8204C15.6513 22.3418 14.212 22.6024 12.648 22.6024ZM31.2285 22.1944V0.0944415H37.0765V22.1944H31.2285ZM52.5263 22.1944L45.9983 0.0944415H52.1863L54.4983 9.75044C54.8156 10.9291 55.0876 12.0964 55.3143 13.2524C55.5409 14.3858 55.8129 15.5531 56.1303 16.7544H56.2663C56.5836 15.5531 56.8556 14.3858 57.0823 13.2524C57.3316 12.0964 57.6036 10.9291 57.8983 9.75044L60.1423 0.0944415H66.1263L59.5983 22.1944H52.5263ZM75.0433 22.1944V0.0944415H80.8913V22.1944H75.0433ZM92.6011 22.1944V0.0944415H98.5851L103.481 9.95444L105.589 14.9184H105.725C105.657 14.3291 105.578 13.6831 105.487 12.9804C105.396 12.2778 105.317 11.5638 105.249 10.8384C105.181 10.0904 105.113 9.35378 105.045 8.62844C105 7.88044 104.977 7.16644 104.977 6.48644V0.0944415H110.553V22.1944H104.569L99.6731 12.3004L97.5651 7.37044H97.4291C97.5651 8.63978 97.7238 10.0224 97.9051 11.5184C98.0865 13.0144 98.1771 14.4424 98.1771 15.8024V22.1944H92.6011ZM132.445 22.6024C130.904 22.6024 129.453 22.3758 128.093 21.9224C126.733 21.4464 125.543 20.7438 124.523 19.8144C123.526 18.8624 122.732 17.6838 122.143 16.2784C121.576 14.8504 121.293 13.1958 121.293 11.3144C121.293 9.45578 121.588 7.81244 122.177 6.38444C122.766 4.93377 123.56 3.72111 124.557 2.74644C125.577 1.74911 126.756 0.989774 128.093 0.468441C129.43 -0.0528926 130.836 -0.313559 132.309 -0.313559C133.941 -0.313559 135.346 -0.0188924 136.525 0.570441C137.726 1.13711 138.724 1.81711 139.517 2.61044L136.457 6.35044C135.913 5.87444 135.335 5.48911 134.723 5.19444C134.134 4.87711 133.397 4.71844 132.513 4.71844C131.765 4.71844 131.074 4.86578 130.439 5.16044C129.804 5.45511 129.249 5.87444 128.773 6.41844C128.297 6.96244 127.923 7.63111 127.651 8.42444C127.402 9.21778 127.277 10.1131 127.277 11.1104C127.277 13.1958 127.742 14.7938 128.671 15.9044C129.6 17.0151 131.062 17.5704 133.057 17.5704C133.374 17.5704 133.68 17.5364 133.975 17.4684C134.292 17.4004 134.553 17.2984 134.757 17.1624V14.1024H131.493V9.34244H139.925V19.8824C139.132 20.6304 138.078 21.2764 136.763 21.8204C135.448 22.3418 134.009 22.6024 132.445 22.6024ZM149.665 22.1944V18.6584L158.709 4.99044H150.549V0.0944415H165.917V3.63044L156.873 17.2984H165.985V22.1944H149.665Z" fill="black"/>
</g>
<defs>
<clipPath id="clip0_3_25">
<rect width="177" height="29" fill="white"/>
</clipPath>
</defs>
</svg>
