<svg width="28" height="28" viewBox="0 0 28 28" fill="none" xmlns="http://www.w3.org/2000/svg">
<path d="M25.8557 6.59864C24.965 6.99262 24.0205 7.25136 23.0534 7.36631C24.0728 6.75665 24.8357 5.79716 25.2001 4.66664C24.2434 5.23598 23.1946 5.63498 22.1014 5.85081C21.3671 5.06515 20.3938 4.5441 19.3328 4.36866C18.2719 4.19322 17.1827 4.37321 16.2345 4.88067C15.2864 5.38813 14.5325 6.19461 14.09 7.17473C13.6475 8.15486 13.5413 9.25372 13.7877 10.3005C11.8477 10.2032 9.94978 9.69909 8.21723 8.82075C6.48468 7.94241 4.95621 6.70953 3.73106 5.20214C3.2974 5.947 3.06951 6.79374 3.07073 7.65564C3.07073 9.34731 3.93173 10.8418 5.24073 11.7168C4.46607 11.6924 3.70847 11.4832 3.03106 11.1066V11.1673C3.0313 12.294 3.42116 13.3859 4.13455 14.2579C4.84794 15.1299 5.84096 15.7284 6.94523 15.9518C6.22611 16.1467 5.47209 16.1754 4.74023 16.0358C5.05157 17.0056 5.6584 17.8537 6.47575 18.4614C7.2931 19.0692 8.28004 19.4061 9.29839 19.425C8.28629 20.2199 7.12743 20.8075 5.88809 21.1542C4.64874 21.5009 3.35321 21.5999 2.07556 21.4456C4.30588 22.88 6.90217 23.6415 9.55389 23.639C18.5291 23.639 23.4372 16.2038 23.4372 9.75564C23.4372 9.54564 23.4314 9.33331 23.4221 9.12564C24.3774 8.43517 25.2019 7.57983 25.8569 6.59981L25.8557 6.59864Z" fill="#131212"/>
</svg>
